<svg xmlns="http://www.w3.org/2000/svg" viewBox="0 0 337.26 337.26"><defs><style>.cls-1{fill:#fff;}.cls-2{fill:#fcfefd;}.cls-3{fill:#324a61;}</style></defs><title>Asset 8</title><g id="Layer_2" data-name="Layer 2"><g id="Layer_1-2" data-name="Layer 1"><path class="cls-1" d="M337.26,337.26H0V0H337.26ZM24.09,313.17H313.17V24.09H24.09Z"/><path class="cls-2" d="M228.9,96.55l38.15-.11c2.47,0,1.24,1.27.73,2.15Q258.39,114.82,249,131q-39.5,68.13-79,136.25c-1.34,2.31-1.4,2.31-2.74,0q-33.47-57.73-66.93-115.5Q85,125.39,69.69,99c-.41-.7-1.29-1.46-.84-2.21s1.51-.36,2.31-.36l37.15.1a4.24,4.24,0,0,0,.92,2.51c2.2,3.75,4.45,7.48,6.62,11.25,5.16,8.94,10.25,17.92,15.44,26.86,5.64,9.71,11.38,19.37,17,29.09,6.3,10.84,12.54,21.73,18.83,32.58.92,1.59,2,1.59,2.91,0,2.5-4.25,5-8.49,7.46-12.76,5.16-8.95,10.26-17.93,15.44-26.87s10.43-17.84,15.63-26.77c5.32-9.14,10.68-18.26,15.89-27.47C226,102.24,228.16,99.75,228.9,96.55Z"/><path class="cls-3" d="M228.9,96.55c-.74,3.2-2.86,5.69-4.42,8.44-5.21,9.21-10.57,18.33-15.89,27.47-5.2,8.93-10.46,17.83-15.63,26.77s-10.28,17.92-15.44,26.87c-2.45,4.27-5,8.51-7.46,12.76-.93,1.57-2,1.57-2.91,0-6.29-10.85-12.53-21.74-18.83-32.58-5.65-9.72-11.39-19.38-17-29.09-5.19-8.94-10.28-17.92-15.44-26.86-2.17-3.77-4.42-7.5-6.62-11.25a4.24,4.24,0,0,1-.92-2.51c11.79,0,23.59,0,35.38-.11,1.82,0,2.51,1.1,3.21,2.32,4.79,8.24,9.54,16.49,14.32,24.74,1.93,3.32,3.87,6.64,5.85,9.94,1.37,2.31,1.75,2.3,3.08,0,6.69-11.48,13.42-22.94,20-34.47a4.52,4.52,0,0,1,4.6-2.56C206.14,96.56,217.52,96.53,228.9,96.55Z"/></g></g></svg>